<svg height="100" width="100" xmlns="http://www.w3.org/2000/svg"><path d="M5273.1 2400.1v-2c0-2.8-5-4-9.7-4s-9.7 1.3-9.7 4v2c0 1.8.7 3.6 2 4.9l5 4.9c.3.3.4.6.4 1v6.4c0 .4.2.7.6.8l2.9.9c.5.1 1-.2 1-.8v-7.2c0-.4.2-.7.4-1l5.1-5c1.3-1.3 2-3.1 2-4.9zm-9.7-.1c-4.8 0-7.4-1.3-7.5-1.8.1-.5 2.7-1.8 7.5-1.8s7.3 1.3 7.5 1.8c-.2.5-2.7 1.8-7.5 1.8z"/><path d="M5268.4 2410.3c-.6 0-1 .4-1 1s.4 1 1 1h4.3c.6 0 1-.4 1-1s-.4-1-1-1h-4.3zM5272.7 2413.7h-4.3c-.6 0-1 .4-1 1s.4 1 1 1h4.3c.6 0 1-.4 1-1s-.4-1-1-1zM5272.7 2417h-4.3c-.6 0-1 .4-1 1s.4 1 1 1h4.3c.6 0 1-.4 1-1 0-.5-.4-1-1-1zM88.5 44.3C69.7 42 50.9 40.8 32 40.5l11.1-10.2c9-8.3-4.4-21.6-13.4-13.4-6.3 5.8-12.6 11.6-18.9 17.3-4.3 4-8.7 7.5-8.2 13.8.4 5.8 5.1 10.6 8.3 15.2 4.9 6.7 10 13.1 15.4 19.4 8 9.3 21.3-4.2 13.4-13.4-2.7-3.2-5.4-6.4-7.9-9.7 19 .3 37.9 1.5 56.8 3.8 12 1.4 11.9-17.6-.1-19z"/></svg>