<svg height="100" width="100" xmlns="http://www.w3.org/2000/svg"><path d="M5273.1 2400.1v-2c0-2.8-5-4-9.7-4s-9.7 1.3-9.7 4v2c0 1.8.7 3.6 2 4.9l5 4.9c.3.3.4.6.4 1v6.4c0 .4.2.7.6.8l2.9.9c.5.1 1-.2 1-.8v-7.2c0-.4.2-.7.4-1l5.1-5c1.3-1.3 2-3.1 2-4.9zm-9.7-.1c-4.8 0-7.4-1.3-7.5-1.8.1-.5 2.7-1.8 7.5-1.8s7.3 1.3 7.5 1.8c-.2.5-2.7 1.8-7.5 1.8z"/><path d="M5268.4 2410.3c-.6 0-1 .4-1 1s.4 1 1 1h4.3c.6 0 1-.4 1-1s-.4-1-1-1h-4.3zM5272.7 2413.7h-4.3c-.6 0-1 .4-1 1s.4 1 1 1h4.3c.6 0 1-.4 1-1s-.4-1-1-1zM5272.7 2417h-4.3c-.6 0-1 .4-1 1s.4 1 1 1h4.3c.6 0 1-.4 1-1 0-.5-.4-1-1-1z"/><g><circle transform="matrix(.0088 -1 1 .0088 25.41 98.494)" cx="62.4" cy="36.4" r="12.7"/><path d="M93.7 29.8c-2.9-.9-6 .7-6.9 3.5l-2.9 9.1c-1.5 4.5-4.9 8.1-9.4 9.7-2.1.8-4.3 1.1-6.5 1.1H55.6c-5.2 0-10 2.7-12.8 7.1l-12.5 20c-1.6 2.6-.8 5.9 1.7 7.5.9.6 1.9.8 2.9.8 1.8 0 3.6-.9 4.7-2.6l9.6-15.3v15.5c0 1.9 1.5 3.4 3.4 3.4h19.5c1.9 0 3.4-1.5 3.4-3.4v-23c.9-.2 1.8-.4 2.7-.7 7.7-2.8 13.5-8.9 16-16.6l2.9-9.1c1.1-3-.5-6.1-3.4-7zM39.5 50c1.7.6 3.3-1.1 2.8-2.8L39.5 39c3.9-7.4 2.8-16.8-3.4-23C28.4 8.3 16 8.3 8.3 16 .6 23.7.6 36.1 8.3 43.8c6.2 6.2 15.6 7.3 23 3.4l8.2 2.8zm-17-8.6c-1.3 0-2.4-1.1-2.4-2.4s1.1-2.4 2.4-2.4c1.3 0 2.4 1.1 2.4 2.4s-1.1 2.4-2.4 2.4zm5.8-12.5c-.9 1.3-1.9 2-2.6 2.5-.8.6-1.1.8-1.2 2.1 0 .6-.5 1-1.1 1h-1.7c-.7 0-1.2-.6-1.1-1.2.2-3 1.4-4.1 2.9-5.2.6-.4 1.1-.8 1.7-1.6.6-.8.6-1.8.2-2.7-.3-.6-1.1-1.6-3.1-1.6-2.5 0-3.3 1.6-3.5 2.8-.1.5-.6.9-1.1.9h-1.8c-.7 0-1.2-.6-1.1-1.3.5-3.3 2.9-6.5 7.5-6.5 2.9 0 5.4 1.4 6.6 3.8 1.1 2.4.9 5-.6 7z"/></g></svg>