<svg height='100px' width='100px'  fill="#000000" xmlns="http://www.w3.org/2000/svg" xmlns:xlink="http://www.w3.org/1999/xlink" version="1.1" x="0px" y="0px" viewBox="0 0 100 100" style="enable-background:new 0 0 100 100;" xml:space="preserve"><path d="M48.8,78.5c0.8,0,1.5,0.7,1.5,1.5s-0.7,1.5-1.5,1.5h-20c-0.8,0-1.5-0.7-1.5-1.5s0.7-1.5,1.5-1.5H48.8z M39.8,24.3v9h-9v7h9  v9h7v-9h9v-7h-9v-9H39.8z M24.8,56.5c-0.8,0-1.5,0.7-1.5,1.5s0.7,1.5,1.5,1.5s1.5-0.7,1.5-1.5S25.6,56.5,24.8,56.5z M24.8,71.2  c-0.8,0-1.5,0.7-1.5,1.5s0.7,1.5,1.5,1.5s1.5-0.7,1.5-1.5S25.6,71.2,24.8,71.2z M24.8,78.5c-0.8,0-1.5,0.7-1.5,1.5s0.7,1.5,1.5,1.5  s1.5-0.7,1.5-1.5S25.6,78.5,24.8,78.5z M24.8,63.8c-0.8,0-1.5,0.7-1.5,1.5s0.7,1.5,1.5,1.5s1.5-0.7,1.5-1.5S25.6,63.8,24.8,63.8z   M57.3,81.5c0.8,0,1.5-0.7,1.5-1.5s-0.7-1.5-1.5-1.5s-1.5,0.7-1.5,1.5S56.4,81.5,57.3,81.5z M51.8,80c0,0.8,0.7,1.5,1.5,1.5  s1.5-0.7,1.5-1.5s-0.7-1.5-1.5-1.5S51.8,79.2,51.8,80z M62.6,80.7c-0.8-0.5-1.6-1.2-2.3-1.8c-0.3,0.3-0.6,0.7-0.6,1.2  c0,0.8,0.7,1.5,1.5,1.5C61.9,81.5,62.4,81.2,62.6,80.7z M28.8,71.2c-0.8,0-1.5,0.7-1.5,1.5s0.7,1.5,1.5,1.5h27.9c-0.5-1-1-2-1.3-3  H28.8z M28.8,66.8h25.6c-0.1-0.6-0.1-1.3-0.1-1.9c0-0.4,0-0.7,0.1-1.1H28.8c-0.8,0-1.5,0.7-1.5,1.5S27.9,66.8,28.8,66.8z M27.3,58  c0,0.8,0.7,1.5,1.5,1.5H55c0.3-1,0.7-2,1.2-3H28.8C27.9,56.5,27.3,57.2,27.3,58z M71.5,83.8c-0.8,2.7-3.3,4.7-6.2,4.7h-44  c-3.6,0-6.5-2.9-6.5-6.5V18c0-3.6,2.9-6.5,6.5-6.5h44c3.6,0,6.5,2.9,6.5,6.5v28c0.5,0,1-0.1,1.5-0.1s1,0,1.5,0.1V18  c0-5.2-4.3-9.5-9.5-9.5h-44c-5.2,0-9.5,4.3-9.5,9.5v64c0,5.2,4.3,9.5,9.5,9.5h44c4.6,0,8.5-3.3,9.3-7.6c-0.4,0-0.9,0.1-1.3,0.1  C72.7,83.9,72.1,83.9,71.5,83.8z M89.8,64.9c0,9.1-7.4,16.5-16.5,16.5S56.8,74,56.8,64.9s7.4-16.5,16.5-16.5S89.8,55.8,89.8,64.9z   M86.8,64.9c0-7.4-6.1-13.5-13.5-13.5s-13.5,6.1-13.5,13.5s6.1,13.5,13.5,13.5S86.8,72.4,86.8,64.9z M77.2,66.4l-2.4,2.4V57.4  c0-0.8-0.7-1.5-1.5-1.5s-1.5,0.7-1.5,1.5v11.4l-2.4-2.4c-0.6-0.6-1.5-0.6-2.1,0c-0.6,0.6-0.6,1.5,0,2.1l5,5c0,0,0.1,0.1,0.1,0.1  c0.2,0.2,0.5,0.3,0.8,0.4c0.1,0,0.1,0,0.2,0c0,0,0.1,0,0.1,0c0.4,0,0.7-0.2,1-0.4l5-5c0.3-0.3,0.4-0.7,0.4-1.1s-0.1-0.8-0.4-1.1  C78.7,65.8,77.8,65.8,77.2,66.4z"></path></svg>