<svg height='100px' width='100px' fill="#000000" xmlns="http://www.w3.org/2000/svg"
    xmlns:xlink="http://www.w3.org/1999/xlink" version="1.1" x="0px" y="0px" viewBox="0 0 100 100"
    enable-background="new 0 0 100 100" xml:space="preserve">
    <path fill="none"
        d="M62.082,51.331H37.918c-1.149,0-2.085,0.936-2.085,2.085V74h28.333V53.416  C64.167,52.267,63.231,51.331,62.082,51.331z M58.25,69.958h-16.5c-1.381,0-2.5-1.119-2.5-2.5s1.119-2.5,2.5-2.5h16.5  c1.381,0,2.5,1.119,2.5,2.5S59.631,69.958,58.25,69.958z M58.25,60.373h-16.5c-1.381,0-2.5-1.119-2.5-2.5s1.119-2.5,2.5-2.5h16.5  c1.381,0,2.5,1.119,2.5,2.5S59.631,60.373,58.25,60.373z">
    </path>
    <path fill="none"
        d="M65.464,26.554c-0.392-0.357-0.9-0.554-1.43-0.554H61.5v6.919  c0,3.906-3.178,7.085-7.085,7.085H37.918c-3.907,0-7.085-3.179-7.085-7.085V26h-3.208c-1.172,0-2.125,0.953-2.125,2.125v43.75  c0,1.172,0.953,2.125,2.125,2.125h3.208V53.416c0-3.906,3.178-7.085,7.085-7.085h24.163c3.907,0,7.085,3.179,7.085,7.085V74h3.208  c1.172,0,2.125-0.953,2.125-2.125V35.72c0-0.597-0.253-1.17-0.694-1.571L65.464,26.554z">
    </path>
    <path fill="none"
        d="M37.918,35.004h16.497c1.149,0,2.085-0.936,2.085-2.085V26H35.833v6.919  C35.833,34.068,36.769,35.004,37.918,35.004z M48.68,28.729c0.92-0.93,2.6-0.93,3.53,0.011c0.46,0.46,0.73,1.1,0.73,1.76  s-0.27,1.3-0.73,1.77C51.74,32.729,51.1,33,50.44,33c-0.66,0-1.3-0.271-1.76-0.73c-0.47-0.47-0.74-1.109-0.74-1.77  S48.21,29.2,48.68,28.729z">
    </path>
    <path
        d="M68.831,22.856C67.516,21.659,65.812,21,64.034,21H59H33.333h-5.708c-3.929,0-7.125,3.196-7.125,7.125  v43.75c0,3.929,3.196,7.125,7.125,7.125h5.708h33.333h5.708c3.929,0,7.125-3.196,7.125-7.125V35.72c0-2.002-0.849-3.922-2.328-5.269  L68.831,22.856z M56.5,26v6.919c0,1.149-0.936,2.085-2.085,2.085H37.918c-1.149,0-2.085-0.936-2.085-2.085V26H56.5z M35.833,74  V53.416c0-1.149,0.936-2.085,2.085-2.085h24.163c1.149,0,2.085,0.936,2.085,2.085V74H35.833z M74.5,71.875  c0,1.172-0.953,2.125-2.125,2.125h-3.208V53.416c0-3.906-3.178-7.085-7.085-7.085H37.918c-3.907,0-7.085,3.179-7.085,7.085V74  h-3.208c-1.172,0-2.125-0.953-2.125-2.125v-43.75c0-1.172,0.953-2.125,2.125-2.125h3.208v6.919c0,3.906,3.178,7.085,7.085,7.085  h16.497c3.907,0,7.085-3.179,7.085-7.085V26h2.534c0.53,0,1.038,0.196,1.43,0.554l8.342,7.595c0.441,0.401,0.694,0.975,0.694,1.571  V71.875z">
    </path>
    <path
        d="M50.44,33c0.66,0,1.3-0.271,1.77-0.73c0.46-0.47,0.73-1.109,0.73-1.77s-0.27-1.3-0.73-1.76  c-0.93-0.94-2.61-0.94-3.53-0.011c-0.47,0.471-0.74,1.11-0.74,1.771s0.27,1.3,0.74,1.77C49.14,32.729,49.78,33,50.44,33z">
    </path>
    <path
        d="M58.25,55.373h-16.5c-1.381,0-2.5,1.119-2.5,2.5s1.119,2.5,2.5,2.5h16.5c1.381,0,2.5-1.119,2.5-2.5  S59.631,55.373,58.25,55.373z">
    </path>
    <path
        d="M58.25,64.958h-16.5c-1.381,0-2.5,1.119-2.5,2.5s1.119,2.5,2.5,2.5h16.5c1.381,0,2.5-1.119,2.5-2.5  S59.631,64.958,58.25,64.958z">
    </path>
</svg>