<svg height='100px' width='100px'  fill="#000000" xmlns="http://www.w3.org/2000/svg" data-name="图层 1" viewBox="0 0 44 44" x="0px" y="0px"><defs><style>.cls-1{fill:none;stroke:#000000;stroke-linecap:round;stroke-linejoin:round;stroke-width:3px;}</style></defs><title>医疗_中药</title><path class="cls-1" d="M5.67,19h0a12,12,0,0,0,4,9,14.77,14.77,0,0,0,2.27,1.65,2.38,2.38,0,0,1,1,2.92h0a2.38,2.38,0,0,0,2.21,3.28H28.9a2.38,2.38,0,0,0,2.21-3.28h0a2.38,2.38,0,0,1,1-2.92,14.77,14.77,0,0,0,2.27-1.65,12,12,0,0,0,4-9h0a3.28,3.28,0,0,0-3.27-3.27H8.94A3.28,3.28,0,0,0,5.67,19Z"></path><path class="cls-1" d="M32.55,15.76,33.27,14a4.28,4.28,0,1,0-7.92-3.25l-2.06,5"></path></svg>