<svg height="100" width="100" xmlns="http://www.w3.org/2000/svg" viewBox="0 0 33 33">
<circle cx="12.243" cy="4.137" r="3.637"/>
<circle cx="16.603" cy="17.234" r="1.818"/>
<circle cx="4.61" cy="15.072" r="1.818"/>
<path d="M4.61 17.568a2.486 2.486 0 01-2.201-1.342l-1.234 2.951a1.6 1.6 0 002.956 1.227l1.241-2.967a2.437 2.437 0 01-.762.131z"/>
<path d="M25.353 14.832c-.645-.497-3.809-3.046-6.874-5.512-.296-.238-1.941-1.188-3.767-.477-.607.235-1.575.513-2.47.513-1.176 0-1.929-.229-2.767-.476-2.761-.81-4.136.462-5.108 2.583l-.511 1.242a2.48 2.48 0 01.754-.129c.962 0 1.788.551 2.205 1.349l.513-1.249.397 5.971c0 .245.053 2.421.053 2.672v1.968c.31-.138.65-.217 1.012-.217a2.496 2.496 0 11-1.012 4.777v2.747a1.906 1.906 0 003.812 0v-8.238h1.304v8.238a1.906 1.906 0 003.81 0v-9.275c0-.144.018-.917.033-1.6-.047.002-.09.014-.137.014a2.497 2.497 0 010-4.994c.137 0 .268.019.397.039l.157-2.535s5.629 4.521 6.404 5.127c.773.604 1.818.34 2.284-.326.575-.817.271-1.628-.489-2.212z"/>
<circle cx="8.79" cy="25.566" r="1.818"/>
<path d="M25.447 19.5a6.5 6.5 0 100 13 6.5 6.5 0 000-13zm.37 9.916a1.202 1.202 0 01-.966.593c-.021.002-.041.002-.062.002-.375 0-.723-.179-.961-.493l-2.684-3.516 1.478-1.128 2.103 2.756 3.436-5.641 1.588.966-3.932 6.461z"/></svg>